<?xml version="1.0" encoding="utf-8"?>
<!-- Generator: Adobe Illustrator 16.0.0, SVG Export Plug-In . SVG Version: 6.00 Build 0)  -->
<!DOCTYPE svg PUBLIC "-//W3C//DTD SVG 1.1//EN" "http://www.w3.org/Graphics/SVG/1.1/DTD/svg11.dtd">
<svg version="1.1" id="Layer_1" xmlns="http://www.w3.org/2000/svg" xmlns:xlink="http://www.w3.org/1999/xlink" x="0px" y="0px"
	 width="248px" height="301px" viewBox="0 0 248 301" enable-background="new 0 0 248 301" xml:space="preserve">
<g>
	<path fill="#FCDABB" d="M49.8,90.1c0,39.2,27,70.9,62.3,70.9c35.2,0,65.3-31.7,65.3-70.9c0-39.2-28.6-70.9-63.8-70.9
		C52.5,19.2,49.8,50.9,49.8,90.1z"/>
	<path fill="#563726" d="M148.4,54.2c0,0-51.3,12.6-99.1,3.3c5-42,42.1-71.4,98-52.1c66.3,22.9,32.2,110.5,16.4,131.2
		c-9.9-19.1-13.2-41.2-13.2-41.2s12.7,6.1,11.7-8.5c-0.7-10-12.9-3.5-12.9-3.5L148.4,54.2z"/>
	<path fill="#FCDABB" d="M10.8,96.9c1.2,0,2.3,0.2,3.2,0.5c-0.2-8.3-0.1-18.4,2.7-18c4,0.5,2.4,21,2.4,27.1c0,0.3,0,0.7,0,0.9
		c0.1,3.5-0.5,6.6-0.5,6.6l-15.8,0.7C2.8,114.7-2.1,97.1,10.8,96.9z"/>
	<path fill="#563726" d="M120.7,90c0,5.8,2,9,4.4,9c2.5,0,4.4-3.2,4.4-9c0-5.8-2-9-4.4-9C122.7,81,120.7,84.2,120.7,90z"/>
	<path fill="#563726" d="M63.4,90c0,5.8,2,9,4.4,9s4.4-3.2,4.4-9c0-5.8-2-9-4.4-9S63.4,84.2,63.4,90z"/>
	<path fill="#EA7D86" d="M114.9,122.2c0,8.8-7.1,15.9-15.9,15.9c-8.8,0-15.9-7.1-15.9-15.9H114.9z"/>
	<polygon fill="#FCDABB" points="127.4,141.6 127.4,166.2 114.2,196 101,166.2 101,141.6 	"/>
	<polygon fill="#333333" points="127.4,166.2 159.1,176.4 153.5,246 164.6,280.7 66.9,280.7 76.9,246 71.5,174.9 101,166.2 
		114.2,196 	"/>
	<polygon fill="#F5F6F6" points="101,166.2 95.2,167.9 114.2,208.5 133.3,168.1 127.4,166.2 114.2,196 	"/>
	<polygon fill="#F5F6F6" points="127.4,166.2 133.3,168.1 135.6,189.8 127.4,185.8 118,187.4 	"/>
	<polygon fill="#F5F6F6" points="101,166.2 95.2,167.9 92.9,189.8 101,185.8 110.4,187.4 	"/>
	<polygon fill="#333333" points="68.7,301.7 162.9,301.7 161.1,280.7 70.4,280.7 	"/>
	<polygon fill="#CDCCCC" points="161.1,280.7 162,291.2 70.2,284 70.4,280.7 	"/>
	<g>
		<polygon fill="#F5F6F6" points="19.7,116.6 19.4,112.6 1.4,113.3 1.7,117.5 		"/>
		<path fill="#333333" d="M84.8,188.7c0,0-83.5,24.4-83.8-72.9l20-1.1c0,0-6.5,68.1,50.5,60.3L84.8,188.7z"/>
		<path fill="#818181" d="M4.2,132.2c0.1-1,1-1.7,2-1.6c1,0.1,1.7,1,1.6,2c-0.1,1-1,1.7-2,1.6C4.8,134.1,4.1,133.2,4.2,132.2z"/>
		<path fill="#818181" d="M3.8,125.7c0.1-1,1-1.7,2-1.6c1,0.1,1.7,1,1.6,2c-0.1,1-1,1.7-2,1.6C4.4,127.7,3.7,126.8,3.8,125.7z"/>
		<circle fill="#818181" cx="5.2" cy="119.7" r="1.8"/>
	</g>
	<g>
		<path fill="#FCDABB" d="M166.6,287.1c0,0-9.9,14.2-18.8,4.8c-8.8-9.4,7.4-15.8,7.4-15.8L166.6,287.1z"/>
		<polygon fill="#F5F6F6" points="157.1,273.5 153.9,276.1 166.9,287.9 169.3,284.6 		"/>
		<path fill="#333333" d="M159.1,176.4c0,0,77.5,39.6,10.9,110.6L154.6,274c0,0,52.6-41,3-79L159.1,176.4z"/>
		<path fill="#818181" d="M178.9,272.8c-0.8,0.7-1.9,0.6-2.6-0.2c-0.7-0.8-0.6-1.9,0.2-2.6c0.8-0.7,1.9-0.6,2.6,0.2
			C179.8,271,179.7,272.2,178.9,272.8z"/>
		<path fill="#818181" d="M174.8,277.8c-0.8,0.7-1.9,0.6-2.6-0.2c-0.7-0.8-0.6-1.9,0.2-2.6c0.8-0.7,1.9-0.6,2.6,0.2
			C175.7,275.9,175.6,277.1,174.8,277.8z"/>
		<circle fill="#818181" cx="169.6" cy="281.2" r="1.8"/>
	</g>
	<path fill="#563726" d="M142.9,40.5c0,0,33.1-43.1,66.4-19.6c44.1,31.1-22.5,87.5,36.1,104.5c-34,25.3-73.2-3.9-57.4-41.5
		C210.9,29.4,160.6,30,142.9,40.5z"/>
</g>
</svg>
